<svg xmlns="http://www.w3.org/2000/svg" viewBox="59 34 51 50">
  <defs>
    <linearGradient id="g" x1="89.2" y1="30.2" x2="90.9" y2="89.4" gradientUnits="userSpaceOnUse">
      <stop offset="0" stop-color="#a658a3"/>
      <stop offset=".685" stop-color="#5834c2"/>
      <stop offset="1" stop-color="#1e1d47"/>
    </linearGradient>
  </defs>
  <path fill="url(#g)" d="M72.557 35.29c-6.868 0-12.398 5.53-12.398 12.398v22.638c0 6.868 5.53 12.398 12.398 12.398h24.256c6.868 0 12.397-5.53 12.397-12.398V47.688c0-6.868-5.53-12.398-12.397-12.398zm-1.274 6.148c1.747.078 3.12.121 5.341.121h9.31c4.32 0 7.35 1.025 9.487 3.163 1.826 1.782 2.762 4.454 2.762 7.661 0 3.385-1.025 6.147-2.984 8.196-6.662 6.661-14.461 2.523-17.118-1.87l-.024 0-.032-.055 7.686.01c4.098 0 6.325-2.183 6.325-6.102 0-1.782-.49-3.252-1.47-4.276-1.024-1.114-2.494-1.604-4.855-1.604h-8.36c-.255-1.132-.946-2.233-2.745-3.595-1.181-.894-2.63-1.554-4.024-2.039zm6.14 5.385c-.002 8.549-.036 17.216-.021 25.646l-5.908-.003c-.013-6.902-.05-13.808.05-20.758.853-1.325 1.723-2.504 2.439-3.11 1.701-1.44 2.777-1.793 3.44-1.775z"/>
</svg>
