<svg viewBox="14 124 136 44" xmlns="http://www.w3.org/2000/svg">
  <defs>
    <linearGradient id="g" x1="88.572" y1="30.222" x2="90.297" y2="89.401" gradientUnits="userSpaceOnUse" gradientTransform="matrix(0.80244,0,0,0.80244,-3.561,134.316)">
      <stop offset="0" stop-color="#a658a3"/>
      <stop offset=".685" stop-color="#5834c2"/>
      <stop offset="1" stop-color="#1e1d47"/>
    </linearGradient>
  </defs>
  <g transform="translate(-27.799213,-35.741845)">
    <path d="m 54.169706,162.63426 c -5.511295,0 -9.948392,4.43709 -9.948392,9.94839 v 18.16594 c 0,5.5113 4.437097,9.9484 9.948392,9.9484 h 19.463866 c 5.511294,0 9.947979,-4.4371 9.947979,-9.9484 v -18.16594 c 0,-5.5113 -4.436685,-9.94839 -9.947979,-9.94839 z m -1.022166,4.93294 c 1.401891,0.0632 2.504097,0.0975 4.286048,0.0975 h 7.469898 c 3.46697,0 5.897767,0.8222 7.613375,2.53778 1.46542,1.42968 2.216005,3.57409 2.216005,6.14751 0,2.71639 -0.822083,4.93257 -2.394729,6.5767 -5.345379,5.34538 -11.603639,2.02493 -13.735589,-1.49987 l -0.01907,-4.2e-4 -0.02613,-0.0444 6.167829,0.007 c 3.288261,0 5.075583,-1.75115 5.075583,-4.89644 0,-1.42968 -0.393417,-2.60935 -1.179741,-3.43141 -0.822065,-0.89355 -2.001518,-1.28672 -3.895842,-1.28672 h -6.145851 c -0.204318,-0.59569 -0.758872,-1.47861 -2.202321,-2.57139 -0.948024,-0.71771 -2.110834,-1.24666 -3.229465,-1.63629 z m 4.926301,4.32129 c -0.0014,6.85984 -0.02827,13.81514 -0.01661,20.57948 l -4.740523,-0.002 c -0.01016,-5.53854 -0.04043,-11.07979 0.03941,-16.65688 0.684811,-1.06334 1.382629,-2.00971 1.957252,-2.49591 1.365204,-1.15513 2.228297,-1.43846 2.76047,-1.42398 z" fill="url(#g)"/>
    <text xml:space="preserve" style="font-size:24.7916px;font-family:Geneva,Verdana,Tahoma,sans-serif;letter-spacing:0.182617px;fill:#1a1a1a;stroke:#1a1a1a;stroke-width:0.5" x="89.394623" y="190.87169">Presto</text>
  </g>
</svg>
