<svg viewBox="12 19 74 78" xmlns="http://www.w3.org/2000/svg">
  <defs>
    <linearGradient id="g" x1="88.572" y1="30.222" x2="90.297" y2="89.401" gradientUnits="userSpaceOnUse" gradientTransform="translate(0.6127)">
      <stop offset="0" stop-color="#a658a3"/>
      <stop offset=".685" stop-color="#5834c2"/>
      <stop offset="1" stop-color="#1e1d47"/>
    </linearGradient>
  </defs>
  <g transform="translate(-38.720332,-13.899606)">
    <path d="m 72.556613,35.290352 c -6.86818,0 -12.397693,5.529514 -12.397693,12.397693 v 22.638412 c 0,6.868179 5.529513,12.397693 12.397693,12.397693 h 24.255884 c 6.868183,0 12.397183,-5.529514 12.397183,-12.397693 V 47.688045 c 0,-6.868179 -5.529,-12.397693 -12.397183,-12.397693 z m -1.273824,6.147429 c 1.747038,0.07883 3.120608,0.121439 5.341276,0.121439 h 9.308993 c 4.320541,0 7.349801,1.024633 9.487793,3.162598 1.826208,1.781667 2.761588,4.454031 2.761588,7.661031 0,3.385168 -1.024481,6.146966 -2.984314,8.195882 -6.661415,6.661419 -14.460463,2.523473 -17.117301,-1.869136 l -0.02377,-5.17e-4 -0.03256,-0.05529 7.686353,0.0093 c 4.097833,0 6.325195,-2.182287 6.325195,-6.101953 0,-1.781665 -0.490277,-3.251767 -1.470194,-4.276225 -1.024458,-1.113542 -2.494293,-1.60352 -4.855001,-1.60352 H 78.051883 C 77.797261,45.939055 77.106176,44.83875 75.307348,43.476935 74.12592,42.582527 72.676826,41.923341 71.282787,41.437783 Z m 6.13916,5.385201 c -0.0018,8.548736 -0.03523,17.216445 -0.0207,25.646161 l -5.907644,-0.0034 c -0.01266,-6.902138 -0.05038,-13.807645 0.04912,-20.757815 0.853411,-1.325136 1.723033,-2.504499 2.439128,-3.110405 1.701318,-1.439533 2.776906,-1.792608 3.4401,-1.774568 z" fill="url(#g)"/>
    <text xml:space="preserve" style="font-size:19.7556px;font-family:Geneva,Verdana,Tahoma,sans-serif;letter-spacing:0.145521px;fill:#1a1a1a;stroke:#1a1a1a;stroke-width:0.5" x="53.399319" y="102.5423">Presto</text>
  </g>
</svg>
