<svg xmlns="http://www.w3.org/2000/svg" viewBox="0 0 95 24">
  <svg x="0" y="0" width="24" height="24" viewBox="0 0 34.63 34.63">
    <g transform="translate(-78.801,-73.675)">
      <path fill="#4f46e5" d="m 90.02349,73.67512 c -6.217105,0 -11.222215,5.00533 -11.222215,11.222439 V 97.07725 c 0,6.21711 5.00511,11.22222 11.222215,11.22222 h 12.1797 c 6.2171,0 11.22221,-5.00511 11.22221,-11.22222 V 84.897559 c 0,-6.217109 -5.00511,-11.222439 -11.22221,-11.222439 z m 5.316996,4.882432 c 2.7724,0.0049 4.40387,0.05471 4.927844,0.149628 5.47353,0.991218 8.42944,7.010986 5.88956,11.994058 -1.05295,2.065841 -2.89863,3.594586 -5.26444,4.360414 -0.83141,0.269134 -1.656274,0.372548 -3.382594,0.424056 -2.41748,0.07216 -3.14638,-0.01389 -4.07458,-0.481532 -1.47734,-0.744314 -3.688313,-3.390058 -3.038832,-3.636439 0.171412,-0.06503 2.039382,-0.123522 4.151082,-0.129945 4.17805,-0.01276 4.95383,-0.131196 6.169134,-0.940481 2.10027,-1.398598 2.13863,-4.906326 0.0714,-6.543758 -1.025884,-0.812561 -1.577634,-0.900996 -6.225724,-0.998407 l -4.31457,-0.09058 -0.160362,-0.404822 c -0.355171,-0.89765 -1.945843,-2.25656 -3.463557,-2.958982 l -1.477251,-0.683945 7.03893,-0.0492 c 1.17893,-0.0083 2.22988,-0.01175 3.15401,-0.01007 z m -5.665675,4.820705 c 0.354175,-0.0021 0.355971,0.04116 0.347562,8.28202 l -0.0085,8.283811 -1.109339,1.001762 c -0.610139,0.55108 -1.576869,1.33253 -2.148225,1.73669 -0.571356,0.40418 -1.150922,0.73494 -1.288039,0.73494 -0.213839,0 -0.242053,-1.15841 -0.198163,-8.141564 l 0.05122,-8.141562 0.426289,-0.826637 c 0.234532,-0.454546 0.742885,-1.123214 1.129694,-1.485976 0.736695,-0.690901 2.190004,-1.440965 2.797503,-1.443484 z"/>
    </g>
  </svg>
  <text x="29" y="12" dominant-baseline="central" font-family="'Proxima Nova', system-ui, sans-serif" font-size="14" font-weight="300" letter-spacing="0.3" fill="#0f0826">Presto</text>
</svg>
